HIERARCHY
ROOT Hips
{
	OFFSET 0.000000 0.000000 0.000000
	CHANNELS 6 Xposition Yposition Zposition Zrotation Yrotation Xrotation 
	JOINT LHipJoint
	{
		OFFSET 0.000000 0.000000 0.000000
		CHANNELS 3 Zrotation Yrotation Xrotation
		JOINT LeftUpLeg
		{
			OFFSET 1.363060 -1.794630 0.839290
			CHANNELS 3 Zrotation Yrotation Xrotation
			JOINT LeftLeg
			{
				OFFSET 2.448110 -6.726130 0.000000
				CHANNELS 3 Zrotation Yrotation Xrotation
				JOINT LeftFoot
				{
					OFFSET 2.562200 -7.039590 0.000000
					CHANNELS 3 Zrotation Yrotation Xrotation
					JOINT LeftToeBase
					{
						OFFSET 0.157640 -0.433110 2.322550
						CHANNELS 3 Zrotation Yrotation Xrotation
						End Site
						{
							OFFSET 0.000000 0.000000 0.000000
						}
					}
				}
			}
		}
	}
	JOINT RHipJoint
	{
		OFFSET 0.000000 0.000000 0.000000
		CHANNELS 3 Zrotation Yrotation Xrotation
		JOINT RightUpLeg
		{
			OFFSET -1.305520 -1.794630 0.839290
			CHANNELS 3 Zrotation Yrotation Xrotation
			JOINT RightLeg
			{
				OFFSET -2.542530 -6.985550 0.000000
				CHANNELS 3 Zrotation Yrotation Xrotation
				JOINT RightFoot
				{
					OFFSET -2.568260 -7.056230 0.000000
					CHANNELS 3 Zrotation Yrotation Xrotation
					JOINT RightToeBase
					{
						OFFSET -0.164730 -0.452590 2.363150
						CHANNELS 3 Zrotation Yrotation Xrotation
						End Site
						{
							OFFSET 0.000000 0.000000 0.000000
						}
					}
				}
			}
		}
	}
}
MOTION
Frames: 16
Frame Time: 0.008333
-11.190682 16.796959 -1.192661 -22.926053 85.029693 -4.237554 -9.184607 -0.332866 2.027336 -7.266974 -5.845902 -45.397326 -1.297428 1.018703 26.266335 1.252485 6.668635 1.412090 1.429900 -0.000000 -31.068200 10.470609 -2.006451 -3.455082 3.244805 -10.295613 -4.733029 1.951075 -1.750130 25.719110 0.878456 9.536156 2.705023 1.342500 -0.000000 -87.143400
-10.991040 16.789082 -1.201737 -15.110017 84.925659 3.168938 -9.338158 -0.333426 1.910796 -7.882511 -5.900058 -44.870781 -1.269147 1.141861 28.022937 1.355580 7.151717 0.262521 1.344400 0.000000 -30.321800 10.528978 -2.012060 -3.636412 2.013219 -11.220022 -5.661691 1.663370 -2.078446 28.888369 0.880385 10.534179 4.824813 1.873200 0.000001 -89.629500
-10.791650 16.784843 -1.211352 -8.565871 84.860259 9.338359 -9.463078 -0.362741 1.771549 -8.553625 -5.816737 -44.252398 -1.269857 1.220697 29.519100 1.441548 7.544544 -1.052126 1.207700 0.000001 -29.961801 10.622228 -2.044992 -3.777827 0.883115 -12.129228 -6.724632 1.361577 -2.397143 32.038071 0.807131 11.166014 7.300537 2.485600 -0.000000 -91.697400
-10.592436 16.784069 -1.221928 -3.525107 84.793648 14.046005 -9.541002 -0.386194 1.622964 -9.226279 -5.591525 -43.564830 -1.296546 1.263758 30.742876 1.513288 7.837451 -2.481258 1.025300 -0.000000 -29.949300 10.756373 -2.072080 -3.877772 -0.097175 -12.978633 -7.903648 1.047260 -2.687565 35.143638 0.658387 11.353818 10.084073 3.119300 0.000001 -93.066900
-10.393453 16.786640 -1.233413 0.260642 84.708773 17.541053 -9.579461 -0.388119 1.476387 -9.880144 -5.249080 -42.812248 -1.345855 1.278299 31.682109 1.573697 8.035849 -3.957237 0.810700 -0.000000 -30.205400 10.913914 -2.070138 -3.941646 -0.925651 -13.748055 -9.178863 0.730693 -2.938497 38.185962 0.439804 11.054692 13.082472 3.680100 0.000000 -93.417200
-10.194763 16.792596 -1.246155 2.922267 84.599734 19.953654 -9.592014 -0.364186 1.340499 -10.487579 -4.819266 -42.000095 -1.412016 1.270410 32.340404 1.623512 8.144432 -5.409360 0.579700 -0.000000 -30.630800 11.073730 -2.028531 -3.974878 -1.590569 -14.417810 -10.523984 0.427902 -3.144536 41.138498 0.162147 10.240822 16.158971 4.047600 -0.000000 -92.473900
-9.996468 16.802057 -1.260588 4.564931 84.470092 21.387972 -9.593488 -0.316664 1.222007 -11.019423 -4.338007 -41.133088 -1.487720 1.245115 32.733287 1.662575 8.172904 -6.770961 0.349801 -0.000000 -31.120500 11.216794 -1.946761 -3.984462 -2.080177 -14.977120 -11.913132 0.155253 -3.306704 43.974190 -0.158122 8.912845 19.132256 4.101200 -0.000001 -90.154600
-9.798824 16.815276 -1.276677 5.485648 84.334140 22.134886 -9.593119 -0.252992 1.124496 -11.469156 -3.856926 -40.200603 -1.565543 1.203861 32.873316 1.692205 8.148561 -7.982146 0.137600 0.000000 -31.576300 11.333864 -1.832479 -3.980592 -2.411999 -15.437678 -13.322546 -0.074891 -3.434875 46.669426 -0.500604 7.118454 21.799962 3.763600 -0.000000 -86.675400
-9.602165 16.832567 -1.294257 5.916861 84.204017 22.420963 -9.595184 -0.179467 1.049927 -11.833571 -3.425068 -39.191727 -1.638472 1.147978 32.776617 1.714871 8.105381 -8.999394 -0.044700 0.000000 -31.923400 11.422354 -1.696021 -3.973202 -2.605291 -15.810915 -14.730024 -0.259893 -3.541552 49.199234 -0.844083 4.945966 23.976165 3.028000 -0.000000 -82.505800
-9.406770 16.854302 -1.313339 5.950860 84.086706 22.334223 -9.602882 -0.100191 0.999625 -12.103781 -3.078671 -38.105167 -1.700485 1.080394 32.466997 1.733491 8.075281 -9.800924 -0.191600 0.000000 -32.119200 11.481563 -1.547473 -3.970211 -2.668195 -16.100971 -16.117650 -0.406748 -3.637063 51.540644 -1.169677 2.523415 25.525403 1.966400 0.000000 -78.192400
-9.212966 16.880681 -1.333936 5.598833 83.986617 21.883279 -9.619069 -0.017892 0.974255 -12.270430 -2.839960 -36.949158 -1.747208 1.004980 31.974513 1.751016 8.084098 -10.386620 -0.302700 0.000000 -32.153999 11.511757 -1.395678 -3.976473 -2.600615 -16.307299 -17.474665 -0.527265 -3.727834 53.677304 -1.462674 0.010338 26.378346 0.713600 0.000000 -74.176400
-9.021027 16.911872 -1.355699 4.936950 83.909297 21.140463 -9.642918 0.064645 0.971024 -12.339627 -2.722867 -35.725930 -1.776704 0.924155 31.322120 1.770769 8.154990 -10.770737 -0.380800 0.000000 -32.046600 11.517084 -1.246935 -3.995714 -2.415207 -16.433907 -18.792686 -0.631801 -3.818251 55.597816 -1.712543 -2.417442 26.529682 -0.563800 -0.000000 -70.709500
-8.831162 16.947784 -1.378341 3.958074 83.857818 20.096130 -9.673980 0.146201 0.986111 -12.315538 -2.722640 -34.446504 -1.788998 0.841074 30.537229 1.794549 8.295487 -10.981706 -0.430899 0.000000 -31.839400 11.500905 -1.105237 -4.028423 -2.115998 -16.481848 -20.066646 -0.727602 -3.908084 57.291975 -1.912429 -4.603718 26.027944 -1.711900 -0.000000 -67.881300
-8.643494 16.988085 -1.401516 2.637618 83.834404 18.722807 -9.710949 0.226651 1.014646 -12.206313 -2.820391 -33.124680 -1.785993 0.758470 29.646494 1.822608 8.499643 -11.055213 -0.458500 0.000000 -31.588500 11.467150 -0.973237 -4.072278 -1.707159 -16.453115 -21.292573 -0.817170 -3.994704 58.750806 -2.057974 -6.426957 24.956616 -2.616100 -0.000000 -65.634099
-8.458068 17.032232 -1.424785 0.966025 83.839985 17.007658 -9.750908 0.306201 1.049674 -12.026423 -2.987629 -31.771002 -1.771065 0.678050 28.670575 1.853711 8.751433 -11.025891 -0.468401 0.000000 -31.353900 11.420873 -0.851824 -4.123317 -1.199052 -16.350428 -22.464735 -0.898150 -4.074458 59.961530 -2.147652 -7.812686 23.433142 -3.216801 -0.000000 -63.905000
-8.274735 17.079464 -1.447664 -1.073433 83.874302 14.931336 -9.790460 0.385451 1.083845 -11.791936 -3.189192 -30.395434 -1.748347 0.600805 27.626725 1.884949 9.025117 -10.923972 -0.464600 0.000001 -31.190900 11.367321 -0.741164 -4.175920 -0.604389 -16.176578 -23.576724 -0.965082 -4.143433 60.910783 -2.182576 -8.735576 21.594330 -3.510100 -0.000000 -62.617400
